<?xml version="1.0" encoding="utf-8"?>
<!-- Generator: Adobe Illustrator 25.2.3, SVG Export Plug-In . SVG Version: 6.00 Build 0)  -->
<svg version="1.1" id="Calque_1" xmlns="http://www.w3.org/2000/svg" xmlns:xlink="http://www.w3.org/1999/xlink" x="0px" y="0px"
	 viewBox="0 0 311.2 493.7" style="enable-background:new 0 0 311.2 493.7;" xml:space="preserve">
<path d="M234.1,478.8c-20.1,19.5-42.3,16.5-63.4,7.3c-16-9.2-33.3,0-33.3,0c-29.6,12.8-45.2,9-63.1-7.3
	c-164-130.1-5.7-209.8-5.7-289.1s70.6-93.8,86.9-92.7c24.3-4.9,88.2,28.4,88.2,108.6c-76.3,105.1,5.3,152.8,67.4,159
	c-14.2,67-51.8,91.7-77.2,114.4L234.1,478.8z"/>
<path d="M148.2,87.6c-3-46,34.3-83.9,77.2-87.6C231.4,53.1,177.2,92.8,148.2,87.6z"/>
</svg>
